<svg xmlns="http://www.w3.org/2000/svg" viewBox="0 0 160 160"><defs><linearGradient id="gold" x2=".2" y2="1"><stop stop-color="#f5d76e"/><stop offset=".5" stop-color="#d4af37"/><stop offset="1" stop-color="#8a6d1f"/></linearGradient><linearGradient id="stone" x2="1" y2=".2"><stop stop-color="#928c9e"/><stop offset=".5" stop-color="#e8dcc0"/><stop offset="1" stop-color="#736c80"/></linearGradient></defs><path d="M57 79q-8-43 24-43t24 43l-11 17 4 11q28 4 35 25H28q6-21 38-25l-2-11Z" fill="url(#stone)" stroke="#63576d" stroke-width="3"/><path d="M55 54q25-30 50 0M62 45l-5-11m15 5-1-13m13 10 3-12m9 16 8-10" fill="none" stroke="#4a7c3a" stroke-width="5"/><path d="M62 96q20 8 31 0M47 116l32 16 37-16" fill="none" stroke="#8a6d1f" stroke-width="3"/><path d="M50 132h62v12H50Zm-11 12h84v10H39Z" fill="url(#stone)" stroke="#63576d" stroke-width="3"/></svg>
