<svg xmlns="http://www.w3.org/2000/svg" viewBox="0 0 160 160"><defs><linearGradient id="gold" x2=".2" y2="1"><stop stop-color="#f5d76e"/><stop offset=".5" stop-color="#d4af37"/><stop offset="1" stop-color="#8a6d1f"/></linearGradient><linearGradient id="stone" x2="1" y2=".2"><stop stop-color="#928c9e"/><stop offset=".5" stop-color="#e8dcc0"/><stop offset="1" stop-color="#736c80"/></linearGradient></defs><circle cx="80" cy="80" r="64" fill="url(#gold)" stroke="#604319" stroke-width="6"/><circle cx="80" cy="80" r="54" fill="none" stroke="#8a6d1f" stroke-width="3" stroke-dasharray="2 4"/><path d="M96 39q-40-9-38 25l-8 19 12 4v17l18 1 15 19H49v11h66v-11l-17-19-5-22q17-6 12-27Z" fill="#8a6d1f"/><path d="M54 60Q67 32 92 44M52 54l-5-12m12 1-2-13m17 6 4-11m7 12 8-9" fill="none" stroke="#4a7c3a" stroke-width="5"/><text x="80" y="150" fill="#f5d76e" text-anchor="middle" font-family="serif" font-weight="bold">$RUG</text></svg>
